<svg width="28" height="32" viewBox="0 0 28 32" fill="none" xmlns="http://www.w3.org/2000/svg">
<path d="M9.6258 11.5615C9.6258 9.51699 7.95592 7.86616 5.91143 7.89791C4.03838 7.92331 2.43199 9.4408 2.30501 11.3075C2.28596 11.5742 2.29866 11.8345 2.3304 12.0821C2.3939 12.5266 2.24786 12.9837 1.96214 13.3266C1.4288 13.9552 1.11133 14.7616 1.11133 15.6505C1.11133 17.6315 2.71771 19.2378 4.69871 19.2378" stroke="#007737" stroke-width="1.5" stroke-linecap="round" stroke-linejoin="round"/>
<path d="M2.20342 18.2216C1.53673 18.7804 1.11133 19.6185 1.11133 20.5582C1.11133 21.7519 1.79706 22.7805 2.78756 23.2821C3.14312 23.4598 3.33995 23.8535 3.32725 24.2535C3.32725 24.3107 3.32725 24.3678 3.32725 24.4249C3.32725 26.152 4.78125 27.7583 6.24795 28.4504C7.61941 30.533 9.1369 30.9965 10.7115 30.6473C11.8671 30.5013 13.4037 29.7838 13.9815 28.7107C14.0703 28.552 14.0957 28.3615 14.0957 28.1774V23.663C14.0957 20.1137 14.0957 16.5708 14.0957 13.0215V4.08164C14.0957 3.44035 14.2735 2.65938 13.8037 2.16413C13.4227 1.76412 12.7751 1.30697 12.2354 1.25618C11.5687 1.19903 11.0608 1.42126 10.4258 1.63079C9.42262 1.96095 8.35593 2.28477 7.45433 3.55464" stroke="#007737" stroke-width="1.5" stroke-linecap="round" stroke-linejoin="round"/>
<path d="M10.5844 4.94471C10.0702 4.10659 9.1495 3.54785 8.0955 3.54785C6.48277 3.54785 5.1748 4.85582 5.1748 6.46855C5.1748 6.99555 5.31449 7.49715 5.56211 7.92255" stroke="#007737" stroke-width="1.5" stroke-linecap="round" stroke-linejoin="round"/>
<path d="M11.9619 7.64975C11.9619 7.64975 14.1016 7.09101 14.1016 10.7863" stroke="#007737" stroke-width="1.5" stroke-linecap="round" stroke-linejoin="round"/>
<path d="M4.78711 11.3071C4.78711 13.3453 6.43794 14.9961 8.47608 14.9961C9.58087 14.9961 10.5777 14.5072 11.2507 13.7326" stroke="#007737" stroke-width="1.5" stroke-linecap="round" stroke-linejoin="round"/>
<path d="M5.68164 17.5612C6.99596 17.7073 8.17693 16.7549 8.32297 15.4469C8.34202 15.2945 8.34202 15.1485 8.32932 15.0024" stroke="#007737" stroke-width="1.5" stroke-linecap="round" stroke-linejoin="round"/>
<path d="M7.32129 23.5485C7.32129 21.1675 9.25149 19.231 11.6388 19.231" stroke="#007737" stroke-width="1.5" stroke-linecap="round" stroke-linejoin="round"/>
<path d="M6.47656 23.4023C8.5274 23.4023 10.1909 25.0659 10.1909 27.1167" stroke="#007737" stroke-width="1.5" stroke-linecap="round" stroke-linejoin="round"/>
<path d="M18.5908 11.5615C18.5908 9.51699 20.2607 7.86616 22.3052 7.89791C24.1782 7.92331 25.7846 9.4408 25.9116 11.3075C25.9307 11.5742 25.918 11.8345 25.8862 12.0821C25.8227 12.5266 25.9688 12.9837 26.2545 13.3266C26.7878 13.9552 27.1053 14.7616 27.1053 15.6505C27.1053 17.6315 25.4989 19.2378 23.5179 19.2378" stroke="#007737" stroke-width="1.5" stroke-linecap="round" stroke-linejoin="round"/>
<path d="M26.0191 18.2216C26.6857 18.7804 27.1112 19.6185 27.1112 20.5582C27.1112 21.7519 26.4254 22.7805 25.4349 23.2821C25.0794 23.4598 24.8825 23.8535 24.8952 24.2535C24.8952 24.3107 24.8952 24.3678 24.8952 24.4249C24.8952 26.152 23.4412 27.7583 21.9745 28.4504C20.6031 30.533 19.0856 30.9965 17.5109 30.6473C16.3554 30.5013 14.8188 29.7838 14.241 28.7107C14.1521 28.552 14.1267 28.3615 14.1267 28.1774V23.663C14.1267 20.1137 14.1267 16.5708 14.1267 13.0215V4.08164C14.1267 3.44035 13.949 2.65938 14.4188 2.16413C14.7998 1.76412 15.4474 1.30697 15.9871 1.25618C16.6538 1.19903 17.1617 1.42126 17.7967 1.63079C18.7999 1.96095 19.8665 2.28477 20.7682 3.55464" stroke="#007737" stroke-width="1.5" stroke-linecap="round" stroke-linejoin="round"/>
<path d="M17.6318 4.94471C18.1461 4.10659 19.0668 3.54785 20.1208 3.54785C21.7335 3.54785 23.0415 4.85582 23.0415 6.46855C23.0415 6.99555 22.9018 7.49715 22.6542 7.92255" stroke="#007737" stroke-width="1.5" stroke-linecap="round" stroke-linejoin="round"/>
<path d="M16.2618 7.64975C16.2618 7.64975 14.1221 7.09101 14.1221 10.7863" stroke="#007737" stroke-width="1.5" stroke-linecap="round" stroke-linejoin="round"/>
<path d="M23.4363 11.3071C23.4363 13.3453 21.7855 14.9961 19.7473 14.9961C18.6425 14.9961 17.6457 14.5072 16.9727 13.7326" stroke="#007737" stroke-width="1.5" stroke-linecap="round" stroke-linejoin="round"/>
<path d="M22.5403 17.5612C21.226 17.7073 20.045 16.7549 19.899 15.4469C19.8799 15.2945 19.8799 15.1485 19.8926 15.0024" stroke="#007737" stroke-width="1.5" stroke-linecap="round" stroke-linejoin="round"/>
<path d="M20.9015 23.5485C20.9015 21.1675 18.9713 19.231 16.584 19.231" stroke="#007737" stroke-width="1.5" stroke-linecap="round" stroke-linejoin="round"/>
<path d="M21.7407 23.4023C19.6899 23.4023 18.0264 25.0659 18.0264 27.1167" stroke="#007737" stroke-width="1.5" stroke-linecap="round" stroke-linejoin="round"/>
</svg>
