<svg width="25" height="34" viewBox="0 0 25 34" fill="none" xmlns="http://www.w3.org/2000/svg">
<path d="M17.6102 9.30136C17.796 9.59774 17.8792 9.94951 17.8626 10.2985C17.6796 14.2788 15.2782 17.4281 12.3416 17.4281C9.40505 17.4281 7.09517 14.3951 6.83174 10.5173C6.80124 10.0575 6.96484 9.59774 7.28373 9.26258C9.23035 7.20735 10.1038 8.30421 12.031 5.62023C12.178 5.41803 12.4775 5.42634 12.6134 5.63685C14.3132 8.29037 16.4096 7.36524 17.6102 9.29582V9.30136Z" stroke="#ffffff" stroke-width="1.5" stroke-linecap="round" stroke-linejoin="round"/>
<path d="M17.8347 9.89111C18.1314 9.68614 18.4669 9.60858 18.7775 9.70553C19.4319 9.9105 19.7342 10.8052 19.4541 11.7054C19.174 12.6056 18.4142 13.1706 17.7598 12.9656C17.6378 12.9269 17.5297 12.8659 17.4326 12.7856" stroke="#ffffff" stroke-width="1.5" stroke-linecap="round" stroke-linejoin="round"/>
<path d="M6.60475 9.89111C6.30804 9.68614 5.97251 9.60858 5.66194 9.70553C5.00752 9.9105 4.70527 10.8052 4.98534 11.7054C4.99088 11.722 5.55934 13.3146 6.67962 12.9656C6.80163 12.9269 6.90977 12.8659 7.00683 12.7856" stroke="#ffffff" stroke-width="1.5" stroke-linecap="round" stroke-linejoin="round"/>
<path d="M9.98438 16.7051V18.475C9.98438 18.8074 9.74591 19.0927 9.4187 19.1536L3.82286 20.1729C3.82286 20.1729 1.40761 20.6881 1.19132 23.4524C1.09704 26.2694 1.19132 33.2245 1.19132 33.2245" stroke="#ffffff" stroke-width="1.5" stroke-linecap="round" stroke-linejoin="round"/>
<path d="M14.6816 16.7051V18.475C14.6816 18.8074 14.9201 19.0927 15.2473 19.1536L20.8432 20.1729C20.8432 20.1729 23.2584 20.6881 23.4747 23.4524C23.569 26.2694 23.4747 33.2245 23.4747 33.2245" stroke="#ffffff" stroke-width="1.5" stroke-linecap="round" stroke-linejoin="round"/>
<path d="M10.6836 13.8052C11.7262 14.6638 12.8299 14.7165 14.0056 13.8052" stroke="#ffffff" stroke-width="1.5" stroke-linecap="round" stroke-linejoin="round"/>
<path d="M5.93652 9.59231V4.80878C5.93652 3.66483 6.86547 2.73416 8.01347 2.73416L8.97569 1.77303C9.61348 1.13596 10.4786 0.775879 11.3826 0.775879H14.0502C16.6208 0.775879 18.7033 2.85604 18.7033 5.42369V9.65602" stroke="#ffffff" stroke-width="1.5" stroke-linecap="round" stroke-linejoin="round"/>
<path d="M9.84885 18.8823L12.3196 22.1092L9.69912 24.386L7.27832 19.5443" stroke="#ffffff" stroke-width="1.5" stroke-linecap="round" stroke-linejoin="round"/>
<path d="M14.7676 18.8823L12.2969 22.1092L14.9173 24.386L17.3381 19.5443" stroke="#ffffff" stroke-width="1.5" stroke-linecap="round" stroke-linejoin="round"/>
<path d="M12.2969 22.1089V33.2243" stroke="none" stroke-width="1.5" stroke-linecap="round" stroke-linejoin="round"/>
</svg>
