<svg width="30" height="34" viewBox="0 0 30 34" fill="none" xmlns="http://www.w3.org/2000/svg">
<path d="M9.06572 28.3243C13.5041 28.3243 17.1021 24.7263 17.1021 20.2879C17.1021 15.8495 13.5041 12.2515 9.06572 12.2515C4.62733 12.2515 1.0293 15.8495 1.0293 20.2879C1.0293 24.7263 4.62733 28.3243 9.06572 28.3243Z" stroke="#ffffff" stroke-width="1.5" stroke-miterlimit="10"/>
<path d="M9.06543 12.2517V2.40039" stroke="#ffffff" stroke-width="1.5" stroke-miterlimit="10"/>
<path d="M5.67285 5.46586L9.13871 2L12.4528 5.32018" stroke="#ffffff" stroke-width="1.5" stroke-miterlimit="10"/>
<path d="M20.4895 24.1427C24.9279 24.1427 28.526 20.5446 28.526 16.1062C28.526 11.6679 24.9279 8.06982 20.4895 8.06982C16.0512 8.06982 12.4531 11.6679 12.4531 16.1062C12.4531 20.5446 16.0512 24.1427 20.4895 24.1427Z" stroke="#ffffff" stroke-width="1.5" stroke-miterlimit="10"/>
<path d="M20.4893 24.1426V33.9999" stroke="#ffffff" stroke-width="1.5" stroke-miterlimit="10"/>
<path d="M22.9352 31.499H18.043" stroke="#ffffff" stroke-width="1.5" stroke-miterlimit="10"/>
</svg>
