<svg width="24" height="24" viewBox="0 0 24 24" fill="none" xmlns="http://www.w3.org/2000/svg">
<g clip-path="url(#clip0_164_19762)">
<path fill-rule="evenodd" clip-rule="evenodd" d="M1.5 4C1.5 3.44772 1.94772 3 2.5 3H3.77924C4.6401 3 5.40438 3.55086 5.67661 4.36754L5.73276 4.53599C5.81782 4.51245 5.90744 4.49988 6 4.49988H19.6844C21.007 4.49988 21.9654 5.76078 21.6114 7.03517L19.667 14.0352C19.4265 14.9008 18.6383 15.4999 17.7399 15.4999H8.72076C7.8599 15.4999 7.09562 14.949 6.82339 14.1324L3.77924 5H2.5C1.94772 5 1.5 4.55229 1.5 4ZM6.3874 6.49988L8.72076 13.4999H17.7399L19.6844 6.49988H6.3874Z" fill="#004C2A"/>
<path fill-rule="evenodd" clip-rule="evenodd" d="M7.5 19C7.5 17.8954 8.39543 17 9.5 17C10.6046 17 11.5 17.8954 11.5 19C11.5 20.1046 10.6046 21 9.5 21C8.39543 21 7.5 20.1046 7.5 19Z" fill="#004C2A"/>
<path fill-rule="evenodd" clip-rule="evenodd" d="M15 19C15 17.8954 15.8954 17 17 17C18.1046 17 19 17.8954 19 19C19 20.1046 18.1046 21 17 21C15.8954 21 15 20.1046 15 19Z" fill="#004C2A"/>
</g>
<defs>
<clipPath id="clip0_164_19762">
<rect width="24" height="24" rx="4" fill="white"/>
</clipPath>
</defs>
</svg>
