<svg width="59" height="60" viewBox="0 0 59 60" fill="none" xmlns="http://www.w3.org/2000/svg">
<path d="M29.5 0.5C23.6655 0.5 17.9619 2.23014 13.1107 5.47165C8.25944 8.71315 4.47835 13.3204 2.24557 18.7108C0.0127819 24.1013 -0.571417 30.0327 0.566848 35.7552C1.70511 41.4776 4.51471 46.734 8.64036 50.8597C12.766 54.9853 18.0224 57.7949 23.7448 58.9332C29.4673 60.0714 35.3988 59.4872 40.7892 57.2544C46.1796 55.0217 50.7869 51.2406 54.0284 46.3893C57.2699 41.5381 59 35.8345 59 30C59 22.1761 55.892 14.6727 50.3597 9.14035C44.8273 3.60803 37.3239 0.5 29.5 0.5ZM37.8365 39.0958C35.7762 40.4786 33.3635 41.2437 30.8828 41.3008C28.402 41.3579 25.9567 40.7047 23.8349 39.4181V49.1832H17.9049V27.8776C17.9194 27.4497 17.954 27.0291 18.0087 26.6157C18.0633 26.2023 18.138 25.7963 18.2327 25.3975C18.3255 25.0005 18.4375 24.6117 18.5686 24.2311C18.6979 23.8542 18.8454 23.4854 19.0111 23.1249V23.1057C19.175 22.7415 19.3571 22.3946 19.5574 22.065L19.5711 22.0405C19.7659 21.7054 19.9753 21.3822 20.1993 21.0708L20.2212 21.038C20.4433 20.7284 20.6801 20.4307 20.9314 20.1448L20.9669 20.1038C21.2145 19.8216 21.4758 19.5484 21.7508 19.2844L21.7972 19.2407C22.0686 18.9839 22.3517 18.7399 22.6467 18.5087L22.7041 18.465C22.9991 18.2382 23.3023 18.0225 23.6164 17.8203L23.682 17.7794C23.997 17.579 24.3202 17.3969 24.6516 17.2331L24.7227 17.1975C25.0577 17.0264 25.4001 16.8698 25.7497 16.7277L25.8234 16.7004C26.1785 16.5611 26.5391 16.4273 26.916 16.3262L26.9816 16.3071C27.3549 16.1978 27.7355 16.1068 28.1233 16.0339H28.178C28.5713 15.9602 28.9701 15.9001 29.3744 15.8619H29.4044C29.8169 15.8236 30.2239 15.8018 30.6609 15.8018H30.7101C33.4414 15.8034 36.1001 16.6818 38.2949 18.3075C40.4897 19.9333 42.1048 22.2206 42.9023 24.8329C43.6999 27.4452 43.6379 30.2446 42.7255 32.819C41.8131 35.3935 40.0984 37.6071 37.8338 39.1341L37.8365 39.0958Z" fill="#3E8C2F"/>
</svg>
