<svg width="17" height="16" viewBox="0 0 17 16" fill="none" xmlns="http://www.w3.org/2000/svg">
<g clip-path="url(#clip0_164_19735)">
<path fill-rule="evenodd" clip-rule="evenodd" d="M7.91992 4C6.26307 4 4.91992 5.34315 4.91992 7C4.91992 8.65685 6.26307 10 7.91992 10C9.57677 10 10.9199 8.65685 10.9199 7C10.9199 5.34315 9.57677 4 7.91992 4ZM2.91992 7C2.91992 4.23858 5.1585 2 7.91992 2C10.6813 2 12.9199 4.23858 12.9199 7C12.9199 9.76142 10.6813 12 7.91992 12C5.1585 12 2.91992 9.76142 2.91992 7Z" fill="#1D2F28"/>
<path fill-rule="evenodd" clip-rule="evenodd" d="M13.2129 13.7072L9.71289 10.2072L11.1271 8.79297L14.6271 12.293C15.0176 12.6835 15.0176 13.3167 14.6271 13.7072C14.2366 14.0977 13.6034 14.0977 13.2129 13.7072Z" fill="#1D2F28"/>
</g>
<defs>
<clipPath id="clip0_164_19735">
<rect x="0.919922" width="16" height="16" rx="4" fill="white"/>
</clipPath>
</defs>
</svg>
