<svg width="15" height="15" viewBox="0 0 15 15" fill="none" xmlns="http://www.w3.org/2000/svg">
<g clip-path="url(#clip0_307_4993)">
<path d="M10.7706 5.52213H10.8759C11.6879 5.52213 12.4999 5.52046 13.312 5.52301C13.6094 5.52395 13.9 5.55887 14.168 5.7201C14.8985 6.15942 15.1095 7.15638 14.6217 7.88358C14.6097 7.90158 14.5996 7.92185 14.5848 7.93694C14.5346 7.98834 14.5381 8.02989 14.5816 8.09164C14.9188 8.57022 14.9838 9.08792 14.7537 9.63781C14.7078 9.74764 14.6389 9.84786 14.5721 9.94591C14.5376 9.99669 14.5393 10.0274 14.5744 10.0749C14.8015 10.3828 14.92 10.7323 14.8814 11.1251C14.8204 11.7466 14.5066 12.1703 13.9651 12.4035C13.9341 12.4168 13.9022 12.4277 13.8599 12.4438C13.8752 12.5058 13.8896 12.566 13.9049 12.6259C14.1325 13.5169 13.5166 14.4293 12.6514 14.4798C12.4703 14.4903 12.2887 14.4959 12.1073 14.4961C11.0151 14.4976 9.92281 14.489 8.83067 14.4997C8.14531 14.5065 7.48605 14.3785 6.84076 14.1426C6.39018 13.9778 5.93708 13.821 5.48584 13.6583C5.43253 13.6391 5.41006 13.646 5.37939 13.7033C5.13415 14.1618 4.76903 14.4331 4.27105 14.4796C4.10348 14.4952 3.93434 14.4958 3.7659 14.4962C2.97722 14.4978 2.18852 14.4972 1.39983 14.4966C1.16803 14.4964 0.99326 14.3892 0.930817 14.1875C0.899081 14.085 0.891564 13.9702 0.891266 13.8609C0.888584 12.8749 0.890039 11.8889 0.89007 10.9028C0.890132 8.9806 0.889858 7.05838 0.890788 5.13617C0.890824 5.06182 0.894084 4.98561 0.909236 4.91348C0.958434 4.67926 1.11448 4.55015 1.36563 4.52767C1.39659 4.5249 1.42784 4.52508 1.45895 4.52507C2.30991 4.52495 3.16087 4.52399 4.01182 4.52569C4.21442 4.52609 4.4163 4.54214 4.60926 4.61693C4.97511 4.75874 5.24481 5.01685 5.4137 5.39073C5.44572 5.46162 5.47407 5.47848 5.54705 5.45411C5.98676 5.3073 6.34742 5.03158 6.6692 4.68878C7.16514 4.16046 7.54302 3.54829 7.82896 2.86637C8.04747 2.34525 8.16092 1.7919 8.29536 1.24439C8.32751 1.11346 8.35418 0.980463 8.39481 0.852556C8.45876 0.651249 8.59136 0.521561 8.79371 0.511885C9.14583 0.495047 9.50107 0.477471 9.84212 0.600645C10.5231 0.8466 10.9476 1.34816 11.1128 2.09393C11.1869 2.42888 11.1669 2.7727 11.1539 3.112C11.1264 3.83002 11.0185 4.53672 10.8497 5.23249C10.8271 5.32557 10.7994 5.41722 10.7706 5.52213ZM5.55301 9.54991H5.55581C5.55581 10.5525 5.55643 11.5551 5.55442 12.5577C5.55428 12.6246 5.57262 12.6515 5.63356 12.6727C6.10095 12.8356 6.57063 12.9924 7.03198 13.1732C7.57358 13.3855 8.12796 13.501 8.70449 13.4996C9.18443 13.4985 9.66437 13.4993 10.1443 13.4994C10.9408 13.4995 11.7372 13.4988 12.5336 13.5008C12.7068 13.5012 12.8499 13.4401 12.9481 13.2857C13.0509 13.124 13.0641 12.9477 12.9826 12.7733C12.9006 12.5981 12.7599 12.5129 12.5758 12.5012C12.3751 12.4884 12.2103 12.4007 12.1349 12.1916C12.0652 11.9985 12.0982 11.8131 12.2321 11.6594C12.3405 11.5351 12.487 11.5067 12.6381 11.5057C12.9235 11.5038 13.2091 11.5122 13.4941 11.5015C13.5852 11.498 13.6856 11.466 13.7629 11.4148C13.9394 11.2976 14.0066 11.0636 13.9456 10.8521C13.8864 10.647 13.7085 10.5093 13.4977 10.5085C13.1942 10.5074 12.8906 10.5113 12.5871 10.5071C12.3812 10.5043 12.2157 10.4146 12.1371 10.2025C12.0644 10.0064 12.0974 9.81897 12.2338 9.66322C12.3403 9.54179 12.4843 9.51264 12.6327 9.51148C12.9207 9.50924 13.2088 9.51702 13.4965 9.50749C13.583 9.50462 13.6778 9.47551 13.752 9.4283C13.9336 9.31273 14.0068 9.07838 13.9467 8.86343C13.8879 8.65302 13.7107 8.51486 13.4952 8.51417C13.1917 8.5132 12.8881 8.51719 12.5846 8.51266C12.3786 8.50959 12.2135 8.41813 12.136 8.20576C12.0643 8.00939 12.0981 7.82184 12.2356 7.667C12.3426 7.54644 12.4868 7.5181 12.6353 7.51708C12.9232 7.5151 13.2112 7.51744 13.4992 7.51651C13.6609 7.51598 13.792 7.44532 13.8823 7.30238C13.9864 7.13747 13.9996 6.95795 13.9124 6.78284C13.8237 6.60458 13.6762 6.51918 13.4849 6.51926C11.962 6.51989 10.4392 6.51961 8.91635 6.51958C8.88782 6.51958 8.85922 6.52041 8.83076 6.51875C8.56828 6.50349 8.39391 6.33187 8.36852 6.06439C8.3454 5.82084 8.48845 5.60471 8.71678 5.54677C8.7817 5.5303 8.85014 5.52387 8.91706 5.5232C9.17646 5.52057 9.43595 5.51906 9.69529 5.52412C9.76654 5.52552 9.79803 5.50199 9.82502 5.43121C9.95493 5.09051 10.0155 4.73059 10.0856 4.37403C10.1764 3.91256 10.2141 3.44345 10.226 2.97249C10.231 2.77338 10.2404 2.57197 10.2196 2.37501C10.1647 1.85681 9.71919 1.46803 9.23023 1.49905C9.20868 1.50041 9.17744 1.53755 9.17081 1.56382C9.11554 1.78262 9.06776 2.00359 9.01256 2.22241C8.6875 3.51098 8.08761 4.62751 7.16885 5.53831C6.72963 5.97374 6.22862 6.30099 5.6351 6.44149C5.56589 6.45787 5.55162 6.48983 5.55174 6.55869C5.55359 7.55576 5.55301 8.55283 5.55301 9.54991ZM1.8172 13.4941C1.8399 13.4968 1.85 13.499 1.8601 13.499C2.63314 13.4993 3.4062 13.5025 4.17917 13.4951C4.2659 13.4943 4.36165 13.4497 4.43663 13.398C4.59971 13.2855 4.62844 13.1044 4.62825 12.9093C4.62622 10.7685 4.62658 8.62775 4.62628 6.48695C4.62626 6.33464 4.6293 6.18223 4.62551 6.03003C4.61772 5.71708 4.42793 5.52264 4.13394 5.52252C3.5399 5.52229 2.94585 5.52245 2.3518 5.52245C2.19615 5.52245 2.04046 5.52476 1.88489 5.52118C1.82933 5.5199 1.81088 5.54067 1.81485 5.59744C1.81851 5.64981 1.81736 5.70261 1.81736 5.75522C1.81737 8.2699 1.81728 10.7846 1.8172 13.2993C1.8172 13.3624 1.8172 13.4255 1.8172 13.4941Z" fill="#1D2F28"/>
</g>
<defs>
<clipPath id="clip0_307_4993">
<rect width="14" height="14" fill="white" transform="translate(0.889648 0.5)"/>
</clipPath>
</defs>
</svg>
