<svg width="19" height="19" viewBox="0 0 19 19" fill="none" xmlns="http://www.w3.org/2000/svg">
<g clip-path="url(#clip0_307_4987)">
<path d="M13.6784 13.6727C13.8925 13.1237 13.9432 12.5361 13.8335 11.8764C13.7169 11.1755 13.4392 10.6018 12.9845 10.1226C12.552 9.66679 11.997 9.31413 11.2876 9.04443C10.8442 8.87583 10.3845 8.72264 9.93997 8.57451C9.73749 8.50706 9.53505 8.43958 9.33315 8.37046C8.9438 8.23717 8.53164 8.08572 8.14935 7.83109C7.61858 7.47761 7.41151 6.98709 7.4977 6.28737C7.55446 5.82651 7.8564 5.55087 8.07858 5.38359C8.28027 5.23176 8.51998 5.11927 8.83294 5.02961C9.50479 4.83706 10.2255 4.80869 10.975 4.94558C11.4785 5.03748 11.9166 5.19111 12.3081 5.41357L12.3498 5.34736C12.4429 5.19976 12.5359 5.05213 12.6276 4.90353C12.7884 4.64296 12.9482 4.3817 13.1075 4.12129L13.1734 4.01362C12.6937 3.73407 12.2018 3.53283 11.7098 3.41496C11.5128 3.36776 11.3068 3.33033 11.1076 3.29412C11.0057 3.27561 10.9038 3.25707 10.8022 3.23719L10.7944 3.23637C10.5114 3.20459 10.4915 2.96064 10.4922 2.88662C10.496 2.47539 10.4952 2.05658 10.4946 1.65155L10.4943 1.50114L10.185 1.50107C9.76039 1.50107 9.33576 1.50104 8.91113 1.5C8.91107 1.65072 8.91092 1.80138 8.91074 1.95205C8.91035 2.30328 8.90999 2.65449 8.91098 3.00572C8.91146 3.18984 8.81515 3.31769 8.64676 3.35661C8.3011 3.43638 7.95336 3.56789 7.61305 3.74756C7.01077 4.06553 6.57265 4.48039 6.27369 5.01577C5.93041 5.63051 5.81886 6.30717 5.93263 7.08446C6.04345 7.84161 6.37538 8.45411 6.94743 8.95689C7.32269 9.28668 7.76916 9.55047 8.2745 9.74087C8.71157 9.90559 9.16337 10.058 9.60026 10.2053C9.72968 10.249 9.85913 10.2926 9.98841 10.3367C10.4061 10.4789 10.8796 10.6401 11.3228 10.8847C11.7095 11.0981 11.9644 11.3485 12.1247 11.6726C12.2612 11.9483 12.3138 12.2579 12.2904 12.6469C12.2688 13.0043 12.1186 13.3081 11.844 13.5497C11.6252 13.7423 11.3605 13.878 11.0111 13.9767C10.426 14.1422 9.8186 14.1826 9.20568 14.0967C8.57353 14.0081 7.99682 13.7867 7.49157 13.4389C7.34676 13.3392 7.21187 13.2263 7.08139 13.1173L7.06877 13.1067L6.74886 13.4237C6.47118 13.699 6.19352 13.9742 5.91559 14.2491C6.34356 14.6734 6.84145 15.0145 7.43234 15.2891C7.81162 15.4653 8.21338 15.5987 8.62647 15.6854C8.80908 15.7238 8.9133 15.8595 8.91233 16.0578C8.91014 16.4984 8.9114 16.947 8.9126 17.3808L8.9129 17.5H10.4955L10.4958 17.3352C10.4965 16.9402 10.4973 16.5451 10.4954 16.1501L10.4951 16.1133C10.494 16.0001 10.4916 15.7645 10.7863 15.727C10.7997 15.7254 10.8159 15.7233 10.8356 15.7199C11.4107 15.6189 11.9021 15.4463 12.3379 15.1919C12.9896 14.8116 13.428 14.3147 13.6784 13.6727Z" fill="#1D2F28"/>
</g>
<defs>
<clipPath id="clip0_307_4987">
<rect width="8" height="16" fill="white" transform="translate(5.88965 1.5)"/>
</clipPath>
</defs>
</svg>
