 <svg width="16" height="15" viewBox="0 0 16 15" fill="none" xmlns="http://www.w3.org/2000/svg">
<path d="M6.93859 1.42705C7.23794 0.505739 8.54135 0.50574 8.8407 1.42705L9.91027 4.71885C10.0441 5.13087 10.4281 5.40983 10.8613 5.40983H14.3225C15.2913 5.40983 15.694 6.64945 14.9103 7.21885L12.1101 9.25329C11.7597 9.50793 11.613 9.9593 11.7469 10.3713L12.8164 13.6631C13.1158 14.5844 12.0613 15.3506 11.2776 14.7812L8.47743 12.7467C8.12695 12.4921 7.65235 12.4921 7.30186 12.7467L4.50169 14.7812C3.71798 15.3506 2.6635 14.5844 2.96285 13.6631L4.03242 10.3713C4.1663 9.9593 4.01964 9.50793 3.66915 9.25329L0.868981 7.21885C0.0852675 6.64945 0.488043 5.40983 1.45677 5.40983H4.91797C5.35119 5.40983 5.73515 5.13087 5.86902 4.71885L6.93859 1.42705Z" fill="#00CE7C"/>
</svg>
