<svg width="21" height="21" viewBox="0 0 21 21" fill="none" xmlns="http://www.w3.org/2000/svg">
<g clip-path="url(#clip0_307_4978)">
<path fill-rule="evenodd" clip-rule="evenodd" d="M3.26465 1.6875H6.52077V2.875H4.45215C4.4569 4.48763 4.50677 5.573 5.02927 6.62275C5.5874 7.74494 6.72977 8.89444 9.1974 10.4798C11.576 8.89681 12.7243 7.74613 13.3073 6.61562C13.8488 5.56469 13.9367 4.47219 13.9498 2.875H11.8835V1.6875H15.1396V2.28125C15.1396 4.16937 15.1218 5.68937 14.363 7.1595C13.6339 8.575 12.26 9.87413 9.7959 11.5081V14.75C9.7959 15.3799 10.0461 15.984 10.4915 16.4294C10.9369 16.8748 11.541 17.125 12.1709 17.125C12.8008 17.125 13.4049 16.8748 13.8503 16.4294C14.2957 15.984 14.5459 15.3799 14.5459 14.75V13.1968H15.7334V14.75C15.7334 15.2178 15.6413 15.6811 15.4622 16.1133C15.2832 16.5455 15.0208 16.9383 14.69 17.2691C14.3592 17.5999 13.9664 17.8623 13.5342 18.0413C13.102 18.2204 12.6387 18.3125 12.1709 18.3125C11.7031 18.3125 11.2398 18.2204 10.8076 18.0413C10.3754 17.8623 9.98264 17.5999 9.65183 17.2691C9.32102 16.9383 9.05861 16.5455 8.87958 16.1133C8.70055 15.6811 8.6084 15.2178 8.6084 14.75V11.5141C6.05646 9.88006 4.6754 8.57738 3.96527 7.15238C3.26346 5.73925 3.26465 4.27269 3.26465 2.50331V1.6875Z" fill="#1D2F28"/>
<path d="M16.3271 12.375C16.3271 12.6899 16.202 12.992 15.9793 13.2147C15.7566 13.4374 15.4546 13.5625 15.1396 13.5625C14.8247 13.5625 14.5227 13.4374 14.3 13.2147C14.0773 12.992 13.9521 12.6899 13.9521 12.375C13.9521 12.0601 14.0773 11.758 14.3 11.5353C14.5227 11.3126 14.8247 11.1875 15.1396 11.1875C15.4546 11.1875 15.7566 11.3126 15.9793 11.5353C16.202 11.758 16.3271 12.0601 16.3271 12.375Z" fill="#1D2F28"/>
</g>
<defs>
<clipPath id="clip0_307_4978">
<rect width="20" height="20" fill="white" transform="translate(0.889648 0.5)"/>
</clipPath>
</defs>
</svg>
