<svg width="25" height="35" viewBox="0 0 25 35" fill="none" xmlns="http://www.w3.org/2000/svg">
<path d="M17.4608 9.52548C17.6466 9.82186 17.7298 10.1736 17.7132 10.5226C17.5302 14.5029 15.1288 17.6522 12.1922 17.6522C9.25563 17.6522 6.94576 14.6192 6.68232 10.7414C6.65182 10.2817 6.81542 9.82186 7.13432 9.4867C9.08094 7.43148 9.95442 8.52834 11.8816 5.84435C12.0286 5.64215 12.3281 5.65046 12.464 5.86097C14.1638 8.51449 16.2601 7.58936 17.4608 9.51994V9.52548Z" stroke="#007737" stroke-width="1.5" stroke-linecap="round" stroke-linejoin="round"/>
<path d="M17.6853 10.1152C17.982 9.91026 18.3175 9.8327 18.6281 9.92965C19.2825 10.1346 19.5848 11.0293 19.3047 11.9295C19.0246 12.8297 18.2648 13.3947 17.6104 13.1898C17.4884 13.151 17.3803 13.09 17.2832 13.0097" stroke="#007737" stroke-width="1.5" stroke-linecap="round" stroke-linejoin="round"/>
<path d="M6.45533 10.1152C6.15863 9.91026 5.8231 9.8327 5.51253 9.92965C4.85811 10.1346 4.55585 11.0293 4.83592 11.9295C4.84147 11.9461 5.40993 13.5388 6.5302 13.1898C6.65221 13.151 6.76036 13.09 6.85741 13.0097" stroke="#007737" stroke-width="1.5" stroke-linecap="round" stroke-linejoin="round"/>
<path d="M9.83497 16.9292V18.6991C9.83497 19.0315 9.5965 19.3168 9.26929 19.3777L3.67344 20.3971C3.67344 20.3971 1.25819 20.9122 1.0419 23.6766C0.947622 26.4935 1.0419 33.4486 1.0419 33.4486" stroke="#007737" stroke-width="1.5" stroke-linecap="round" stroke-linejoin="round"/>
<path d="M14.5322 16.9292V18.6991C14.5322 19.0315 14.7707 19.3168 15.0979 19.3777L20.6938 20.3971C20.6938 20.3971 23.109 20.9122 23.3253 23.6766C23.4196 26.4935 23.3253 33.4486 23.3253 33.4486" stroke="#007737" stroke-width="1.5" stroke-linecap="round" stroke-linejoin="round"/>
<path d="M10.5342 14.0293C11.5768 14.888 12.6805 14.9406 13.8562 14.0293" stroke="#007737" stroke-width="1.5" stroke-linecap="round" stroke-linejoin="round"/>
<path d="M5.78711 9.81643V5.0329C5.78711 3.88895 6.71605 2.95828 7.86406 2.95828L8.82628 1.99715C9.46406 1.36008 10.3292 1 11.2332 1H13.9008C16.4713 1 18.5538 3.08016 18.5538 5.64781V9.88014" stroke="#007737" stroke-width="1.5" stroke-linecap="round" stroke-linejoin="round"/>
<path d="M9.69944 19.1064L12.1702 22.3333L9.5497 24.6101L7.12891 19.7684" stroke="#007737" stroke-width="1.5" stroke-linecap="round" stroke-linejoin="round"/>
<path d="M14.6182 19.1064L12.1475 22.3333L14.7679 24.6101L17.1887 19.7684" stroke="#007737" stroke-width="1.5" stroke-linecap="round" stroke-linejoin="round"/>
<path d="M12.1475 22.333V33.4484" stroke="#007737" stroke-width="1.5" stroke-linecap="round" stroke-linejoin="round"/>
</svg>
