<svg width="28" height="28" viewBox="0 0 28 28" fill="none" xmlns="http://www.w3.org/2000/svg">
<g clip-path="url(#clip0_164_11393)">
<path d="M18.9497 10.7003L17.2998 9.05039L14 12.3502L10.7002 9.05039L9.05025 10.7003L12.3501 14.0001L9.05025 17.3L10.7002 18.9499L14 15.6501L17.2998 18.9499L18.9497 17.3L15.6499 14.0001L18.9497 10.7003ZM22.2496 5.75056C17.7041 1.20504 10.2959 1.20504 5.75042 5.75056C1.2049 10.2961 1.2049 17.7042 5.75042 22.2497C10.2959 26.7952 17.7041 26.7952 22.2496 22.2497C26.7951 17.7042 26.7951 10.2961 22.2496 5.75056ZM7.40034 20.5998C3.76227 16.9617 3.76227 11.0385 7.40034 7.40047C11.0384 3.76241 16.9616 3.76241 20.5997 7.40047C24.2377 11.0385 24.2377 16.9617 20.5997 20.5998C16.9616 24.2379 11.0384 24.2379 7.40034 20.5998Z" fill="#FF6B57"/>
</g>
<defs>
<clipPath id="clip0_164_11393">
<rect width="28" height="28" fill="white"/>
</clipPath>
</defs>
</svg>
