<svg width="25" height="24" viewBox="0 0 25 24" fill="none" xmlns="http://www.w3.org/2000/svg">
<g clip-path="url(#clip0_164_19794)">
<path d="M24.5195 12C24.5195 5.37258 19.1469 0 12.5195 0C5.89211 0 0.519531 5.37258 0.519531 12C0.519531 18.6274 5.89211 24 12.5195 24C19.1469 24 24.5195 18.6274 24.5195 12Z" fill="#FAF1E5"/>
<path d="M12.5184 17.6401C16.0177 17.6401 18.8864 20.2519 18.8784 24.0001H6.15919C6.15209 20.2537 9.01972 17.6401 12.5184 17.6401Z" fill="#FF7009"/>
<path d="M17.7645 8.77564C16.961 8.77564 16.3884 9.1258 15.8596 9.88574L14.3367 12.0737V5.82861H10.7024V12.0737L9.17945 9.88574C8.65066 9.1258 8.07809 8.77564 7.27454 8.77564C6.06216 8.77564 5.25497 9.67077 5.251 10.7736C5.24753 11.7185 5.69328 12.3338 6.63202 12.9381L12.5195 16.7314L18.4071 12.9381C19.3453 12.3338 19.791 11.7181 19.7881 10.7736C19.7841 9.67077 18.9769 8.77564 17.7645 8.77564Z" fill="#0AAD0A"/>
</g>
<defs>
<clipPath id="clip0_164_19794">
<rect width="24" height="24" fill="white" transform="translate(0.519531)"/>
</clipPath>
</defs>
</svg>
