<svg width="25" height="34" viewBox="0 0 25 34" fill="none" xmlns="http://www.w3.org/2000/svg">
<path d="M17.4608 9.13779C17.6466 9.43416 17.7298 9.78593 17.7132 10.1349C17.5302 14.1152 15.1288 17.2645 12.1922 17.2645C9.25563 17.2645 6.94576 14.2315 6.68232 10.3538C6.65182 9.89396 6.81543 9.43416 7.13432 9.09901C9.08094 7.04378 9.95442 8.14064 11.8816 5.45666C12.0286 5.25446 12.3281 5.26277 12.464 5.47327C14.1638 8.12679 16.2601 7.20166 17.4608 9.13225V9.13779Z" stroke="#007737" stroke-width="1.5" stroke-linecap="round" stroke-linejoin="round"/>
<path d="M5.51272 9.64193C5.45726 9.25416 5.42676 8.85807 5.42676 8.4509C5.42676 4.3349 8.45483 1 12.19 1C15.9252 1 18.9533 4.3349 18.9533 8.4509C18.9533 8.8553 18.9228 9.25416 18.8673 9.64193" stroke="#007737" stroke-width="1.5" stroke-linecap="round" stroke-linejoin="round"/>
<path d="M17.6853 9.72753C17.982 9.52256 18.3175 9.44501 18.6281 9.54195C19.2825 9.74692 19.5848 10.6416 19.3047 11.5418C19.0246 12.442 18.2648 13.007 17.6104 12.8021C17.4884 12.7633 17.3803 12.7024 17.2832 12.622" stroke="#007737" stroke-width="1.5" stroke-linecap="round" stroke-linejoin="round"/>
<path d="M6.72975 9.72753C6.43304 9.52256 6.09751 9.44501 5.78694 9.54195C5.13252 9.74692 4.83027 10.6416 5.11034 11.5418C5.39041 12.442 6.1502 13.007 6.80462 12.8021C6.92663 12.7633 7.03477 12.7024 7.13183 12.622" stroke="#007737" stroke-width="1.5" stroke-linecap="round" stroke-linejoin="round"/>
<path d="M9.83497 16.5415V18.8654C9.83497 19.1978 9.5965 19.4831 9.26929 19.544L3.67344 20.5633C3.67344 20.5633 1.25819 21.0785 1.0419 23.8428C0.947622 26.6598 1.0419 32.7839 1.0419 32.7839" stroke="#007737" stroke-width="1.5" stroke-linecap="round" stroke-linejoin="round"/>
<path d="M14.5332 16.5415V18.8654C14.5332 19.1978 14.7717 19.4831 15.0989 19.544L20.6947 20.5633C20.6947 20.5633 23.11 21.0785 23.3263 23.8428C23.4206 26.6598 23.3263 32.7839 23.3263 32.7839" stroke="#007737" stroke-width="1.5" stroke-linecap="round" stroke-linejoin="round"/>
<path d="M5.77543 12.5835C5.05446 14.2537 4.70229 15.935 4.9685 17.6385C5.14042 18.752 5.68115 19.5137 6.45203 20.0593C7.93002 23.7072 9.87387 26.358 12.1948 28.2055C14.5907 26.2084 16.6344 23.6934 17.9238 20.0593C18.6947 19.5137 19.2354 18.752 19.4073 17.6385C19.6735 15.935 19.3214 14.2537 18.6004 12.5835" stroke="#007737" stroke-width="1.5" stroke-linecap="round" stroke-linejoin="round"/>
<path d="M8.23828 23.6377H16.2189" stroke="#007737" stroke-width="1.5" stroke-linecap="round" stroke-linejoin="round"/>
<path d="M10.5342 13.6416C11.5768 14.5003 12.6805 14.5529 13.8562 13.6416" stroke="#007737" stroke-width="1.5" stroke-linecap="round" stroke-linejoin="round"/>
</svg>
