<svg width="25" height="32" viewBox="0 0 25 32" fill="none" xmlns="http://www.w3.org/2000/svg">
<path d="M9.94085 18.8817C14.8787 18.8817 18.8817 14.8787 18.8817 9.94085C18.8817 5.00296 14.8787 1 9.94085 1C5.00296 1 1 5.00296 1 9.94085C1 14.8787 5.00296 18.8817 9.94085 18.8817Z" stroke="#007737" stroke-width="1.5" stroke-linecap="round" stroke-linejoin="round"/>
<path d="M16.4733 20.6601L16.4684 20.663C15.3107 21.3687 14.8692 22.7564 15.4825 23.7627L19.3923 30.178C20.0056 31.1843 21.4413 31.4281 22.5991 30.7225L22.604 30.7195C23.7618 30.0139 24.2032 28.6261 23.5899 27.6198L19.6801 21.2045C19.0669 20.1982 17.6311 19.9545 16.4733 20.6601Z" stroke="#007737" stroke-width="1.5" stroke-linecap="round" stroke-linejoin="round"/>
<path d="M16.5938 20.5L14.5938 17.5742" stroke="#007737" stroke-width="1.5" stroke-linecap="round" stroke-linejoin="round"/>
<path d="M12.8867 9.16431C12.8867 9.16431 14.3255 10.2948 12.8867 11.7335" stroke="#007737" stroke-width="1.5" stroke-linecap="round" stroke-linejoin="round"/>
<path d="M7.37207 12.647C7.37207 12.647 8.50252 11.2083 9.94128 12.647" stroke="#007737" stroke-width="1.5" stroke-linecap="round" stroke-linejoin="round"/>
<path d="M9.13549 9.17015C9.83865 9.17015 10.4087 8.60013 10.4087 7.89697C10.4087 7.1938 9.83865 6.62378 9.13549 6.62378C8.43233 6.62378 7.8623 7.1938 7.8623 7.89697C7.8623 8.60013 8.43233 9.17015 9.13549 9.17015Z" stroke="#007737" stroke-width="1.5" stroke-linecap="round" stroke-linejoin="round"/>
</svg>
