<svg width="80" height="81" viewBox="0 0 80 81" fill="none" xmlns="http://www.w3.org/2000/svg">
<g clip-path="url(#clip0_164_11537)">
<path d="M40.0002 79.3376C61.478 79.3376 78.8891 61.9264 78.8891 40.4487C78.8891 18.971 61.478 1.55981 40.0002 1.55981C18.5225 1.55981 1.11133 18.971 1.11133 40.4487C1.11133 61.9264 18.5225 79.3376 40.0002 79.3376Z" fill="white"/>
<path d="M72.4185 70.2527C72.858 70.2527 73.2877 70.383 73.6531 70.6272C74.0186 70.8714 74.3034 71.2184 74.4716 71.6245C74.6398 72.0306 74.6838 72.4774 74.598 72.9084C74.5123 73.3395 74.3006 73.7355 73.9899 74.0463C73.6791 74.357 73.2831 74.5687 72.852 74.6544C72.421 74.7402 71.9742 74.6962 71.5681 74.528C71.162 74.3598 70.815 74.075 70.5708 73.7095C70.3266 73.3441 70.1963 72.9144 70.1963 72.4749C70.1963 71.8855 70.4304 71.3203 70.8472 70.9036C71.2639 70.4868 71.8291 70.2527 72.4185 70.2527ZM72.4185 74.3749C72.7943 74.3749 73.1616 74.2635 73.4741 74.0547C73.7866 73.8459 74.0301 73.5492 74.1739 73.202C74.3177 72.8548 74.3553 72.4728 74.282 72.1042C74.2087 71.7357 74.0277 71.3971 73.762 71.1314C73.4963 70.8657 73.1577 70.6847 72.7892 70.6114C72.4206 70.5381 72.0386 70.5757 71.6914 70.7195C71.3442 70.8633 71.0475 71.1069 70.8387 71.4193C70.6299 71.7318 70.5185 72.0991 70.5185 72.4749C70.518 72.7246 70.5668 72.9718 70.6621 73.2026C70.7575 73.4333 70.8974 73.643 71.0739 73.8195C71.2504 73.996 71.4601 74.136 71.6908 74.2313C71.9216 74.3266 72.1689 74.3754 72.4185 74.3749ZM71.9333 73.749H71.6111V71.1897H72.5926C73.1704 71.1897 73.4 71.4416 73.4 71.9008C73.4065 71.9918 73.395 72.0832 73.3662 72.1698C73.3373 72.2563 73.2916 72.3363 73.2317 72.4051C73.1718 72.474 73.0989 72.5303 73.0172 72.5709C72.9355 72.6114 72.8466 72.6355 72.7555 72.6416L73.5185 73.7527H73.1481L72.3852 72.6416H71.9259L71.9333 73.749ZM71.9333 72.3379H72.3444C72.7148 72.3379 73.0852 72.3379 73.0852 71.8971C73.0852 71.5675 72.7852 71.4712 72.5111 71.4712H71.937L71.9333 72.3379Z" fill="#3E8C2F"/>
<path d="M41.6442 29.5007C39.8451 29.5007 38.0864 30.0342 36.5905 31.0337C35.0946 32.0332 33.9287 33.4539 33.2403 35.116C32.5518 36.7782 32.3717 38.6071 32.7226 40.3716C33.0736 42.1361 33.94 43.7569 35.2121 45.0291C36.4842 46.3012 38.105 47.1676 39.8696 47.5185C41.6341 47.8695 43.463 47.6894 45.1252 47.0009C46.7873 46.3124 48.2079 45.1465 49.2074 43.6507C50.207 42.1548 50.7404 40.3961 50.7404 38.597C50.7409 37.4023 50.506 36.2193 50.049 35.1155C49.5921 34.0116 48.9221 33.0087 48.0773 32.1639C47.2325 31.3191 46.2296 30.6491 45.1257 30.1922C44.0219 29.7352 42.8388 29.5002 41.6442 29.5007Z" fill="#3E8C2F"/>
<path d="M40 0.44873C32.0888 0.44873 24.3552 2.79469 17.7772 7.18995C11.1992 11.5852 6.07234 17.8323 3.04484 25.1414C0.0173314 32.4504 -0.774802 40.4931 0.768607 48.2523C2.31202 56.0116 6.12165 63.1389 11.7157 68.733C17.3098 74.3271 24.4372 78.1367 32.1964 79.6801C39.9556 81.2235 47.9983 80.4314 55.3074 77.4039C62.6164 74.3764 68.8635 69.2495 73.2588 62.6715C77.6541 56.0936 80 48.36 80 40.4487C80 29.8401 75.7857 19.6659 68.2843 12.1645C60.7828 4.663 50.6087 0.44873 40 0.44873ZM51.3037 52.7821C48.51 54.6571 45.2386 55.6944 41.8749 55.7718C38.5112 55.8493 35.1955 54.9636 32.3185 53.2191V66.4598H24.2778V37.5709C24.2975 36.9907 24.3445 36.4203 24.4185 35.8598C24.4926 35.2993 24.5938 34.7487 24.7222 34.208C24.8482 33.6697 25 33.1426 25.1778 32.6265C25.3531 32.1154 25.5531 31.6154 25.7778 31.1265V31.1006C26 30.6068 26.2469 30.1364 26.5185 29.6895L26.5371 29.6561C26.8013 29.2018 27.0852 28.7635 27.3889 28.3413L27.4185 28.2969C27.7198 27.8771 28.0408 27.4734 28.3815 27.0858L28.4296 27.0302C28.7654 26.6475 29.1198 26.2771 29.4926 25.9191L29.5556 25.8598C29.9235 25.5117 30.3074 25.1808 30.7074 24.8672L30.7852 24.808C31.1852 24.5006 31.5963 24.208 32.0222 23.9339L32.1111 23.8784C32.5383 23.6068 32.9766 23.3598 33.4259 23.1376L33.5222 23.0895C33.9766 22.8574 34.4408 22.645 34.9148 22.4524L35.0148 22.4154C35.4963 22.2265 35.9852 22.045 36.4963 21.908L36.5852 21.8821C37.0914 21.7339 37.6074 21.6105 38.1334 21.5117H38.2074C38.7408 21.4117 39.2815 21.3302 39.8296 21.2784H39.8704C40.4296 21.2265 40.9815 21.1969 41.5741 21.1969H41.6408C45.3443 21.1991 48.9493 22.3901 51.9253 24.5945C54.9014 26.7989 57.0912 29.9004 58.1727 33.4425C59.2541 36.9846 59.1701 40.7804 57.9329 44.2711C56.6957 47.7619 54.3707 50.7634 51.3 52.8339L51.3037 52.7821Z" fill="#3E8C2F"/>
</g>
<defs>
<clipPath id="clip0_164_11537">
<rect width="80" height="80" fill="white" transform="translate(0 0.44873)"/>
</clipPath>
</defs>
</svg>
