<svg width="36" height="37" viewBox="0 0 36 37" fill="none" xmlns="http://www.w3.org/2000/svg">
<g clip-path="url(#clip0_307_5011)">
<path d="M18 36C27.665 36 35.5 28.165 35.5 18.5C35.5 8.83502 27.665 1 18 1C8.33502 1 0.5 8.83502 0.5 18.5C0.5 28.165 8.33502 36 18 36Z" fill="white"/>
<path d="M32.5879 31.9116C32.7857 31.9116 32.979 31.9703 33.1435 32.0802C33.3079 32.19 33.4361 32.3462 33.5118 32.5289C33.5875 32.7117 33.6073 32.9127 33.5687 33.1067C33.5301 33.3007 33.4349 33.4789 33.295 33.6187C33.1551 33.7586 32.977 33.8538 32.783 33.8924C32.589 33.931 32.3879 33.9112 32.2052 33.8355C32.0225 33.7598 31.8663 33.6316 31.7564 33.4672C31.6465 33.3027 31.5879 33.1094 31.5879 32.9116C31.5879 32.6464 31.6932 32.392 31.8808 32.2045C32.0683 32.017 32.3227 31.9116 32.5879 31.9116ZM32.5879 33.7666C32.757 33.7666 32.9223 33.7165 33.0629 33.6225C33.2035 33.5286 33.3131 33.395 33.3778 33.2388C33.4425 33.0826 33.4595 32.9107 33.4265 32.7448C33.3935 32.579 33.312 32.4266 33.1925 32.307C33.0729 32.1875 32.9205 32.106 32.7547 32.073C32.5888 32.0401 32.4169 32.057 32.2607 32.1217C32.1045 32.1864 31.9709 32.296 31.877 32.4366C31.783 32.5772 31.7329 32.7425 31.7329 32.9116C31.7327 33.024 31.7546 33.1352 31.7975 33.2391C31.8404 33.3429 31.9034 33.4373 31.9828 33.5167C32.0623 33.5961 32.1566 33.6591 32.2604 33.702C32.3643 33.7449 32.4755 33.7668 32.5879 33.7666ZM32.3696 33.485H32.2246V32.3333H32.6662C32.9262 32.3333 33.0296 32.4466 33.0296 32.6533C33.0325 32.6942 33.0273 32.7354 33.0143 32.7743C33.0013 32.8133 32.9808 32.8492 32.9538 32.8802C32.9269 32.9112 32.8941 32.9365 32.8573 32.9548C32.8205 32.9731 32.7805 32.9839 32.7396 32.9866L33.0829 33.4866H32.9162L32.5729 32.9866H32.3662L32.3696 33.485ZM32.3696 32.85H32.5546C32.7212 32.85 32.8879 32.85 32.8879 32.6516C32.8879 32.5033 32.7529 32.46 32.6296 32.46H32.3712L32.3696 32.85Z" fill="#3E8C2F"/>
<path d="M18.7398 13.5732C17.9302 13.5732 17.1388 13.8133 16.4657 14.2631C15.7925 14.7129 15.2679 15.3522 14.9581 16.1001C14.6483 16.8481 14.5672 17.6711 14.7251 18.4651C14.8831 19.2592 15.2729 19.9885 15.8454 20.561C16.4179 21.1335 17.1472 21.5233 17.9412 21.6813C18.7353 21.8392 19.5583 21.7581 20.3063 21.4483C21.0542 21.1385 21.6935 20.6139 22.1433 19.9407C22.5931 19.2676 22.8332 18.4762 22.8332 17.6666C22.8334 17.129 22.7276 16.5966 22.522 16.0999C22.3164 15.6031 22.0149 15.1518 21.6347 14.7717C21.2546 14.3915 20.8033 14.09 20.3065 13.8844C19.8098 13.6788 19.2774 13.573 18.7398 13.5732Z" fill="#3E8C2F"/>
<path d="M18 0.5C14.4399 0.5 10.9598 1.55568 7.99974 3.53355C5.03966 5.51141 2.73255 8.32263 1.37018 11.6117C0.00779915 14.9008 -0.348661 18.52 0.345873 22.0116C1.04041 25.5033 2.75474 28.7106 5.27209 31.2279C7.78943 33.7453 10.9967 35.4596 14.4884 36.1541C17.98 36.8487 21.5992 36.4922 24.8883 35.1298C28.1774 33.7675 30.9886 31.4604 32.9665 28.5003C34.9443 25.5402 36 22.0601 36 18.5C36 13.7261 34.1036 9.14773 30.7279 5.77208C27.3523 2.39642 22.7739 0.5 18 0.5ZM23.0867 24.05C21.8295 24.8938 20.3574 25.3606 18.8437 25.3954C17.3301 25.4302 15.838 25.0317 14.5433 24.2467V30.205H10.925V17.205C10.9339 16.9439 10.955 16.6872 10.9883 16.435C11.0217 16.1828 11.0672 15.935 11.125 15.6917C11.1817 15.4494 11.25 15.2122 11.33 14.98C11.4089 14.75 11.4989 14.525 11.6 14.305V14.2933C11.7 14.0711 11.8111 13.8594 11.9333 13.6583L11.9417 13.6433C12.0606 13.4389 12.1883 13.2417 12.325 13.0517L12.3383 13.0317C12.4739 12.8428 12.6183 12.6611 12.7717 12.4867L12.7933 12.4617C12.9445 12.2894 13.1039 12.1228 13.2717 11.9617L13.3 11.935C13.4656 11.7783 13.6383 11.6294 13.8183 11.4883L13.8533 11.4617C14.0333 11.3233 14.2183 11.1917 14.41 11.0683L14.45 11.0433C14.6422 10.9211 14.8395 10.81 15.0417 10.71L15.085 10.6883C15.2895 10.5839 15.4983 10.4883 15.7117 10.4017L15.7567 10.385C15.9733 10.3 16.1933 10.2183 16.4233 10.1567L16.4633 10.145C16.6911 10.0783 16.9233 10.0228 17.16 9.97833H17.1933C17.4333 9.93333 17.6767 9.89667 17.9233 9.87333H17.9417C18.1933 9.85 18.4417 9.83667 18.7083 9.83667H18.7383C20.4049 9.83768 22.0272 10.3736 23.3664 11.3656C24.7056 12.3576 25.691 13.7532 26.1777 15.3472C26.6644 16.9412 26.6265 18.6492 26.0698 20.2201C25.5131 21.7909 24.4668 23.1416 23.085 24.0733L23.0867 24.05Z" fill="#3E8C2F"/>
</g>
<defs>
<clipPath id="clip0_307_5011">
<rect width="36" height="36" fill="white" transform="translate(0 0.5)"/>
</clipPath>
</defs>
</svg>
