<svg width="15" height="15" viewBox="0 0 15 15" fill="none" xmlns="http://www.w3.org/2000/svg">
<path d="M6.54894 1.42705C6.8483 0.505738 8.1517 0.50574 8.45106 1.42705L9.40837 4.37336C9.54224 4.78538 9.9262 5.06434 10.3594 5.06434H13.4574C14.4261 5.06434 14.8289 6.30395 14.0451 6.87336L11.5389 8.69427C11.1884 8.94892 11.0417 9.40028 11.1756 9.81231L12.1329 12.7586C12.4323 13.6799 11.3778 14.446 10.5941 13.8766L8.08778 12.0557C7.7373 11.8011 7.2627 11.8011 6.91221 12.0557L4.40594 13.8766C3.62222 14.446 2.56774 13.6799 2.8671 12.7586L3.82441 9.8123C3.95828 9.40028 3.81162 8.94892 3.46114 8.69427L0.954859 6.87335C0.171145 6.30395 0.573923 5.06434 1.54265 5.06434H4.64058C5.0738 5.06434 5.45776 4.78538 5.59163 4.37336L6.54894 1.42705Z" fill="#F2994A"/>
</svg>
