<svg width="25" height="24" viewBox="0 0 25 24" fill="none" xmlns="http://www.w3.org/2000/svg">
<g clip-path="url(#clip0_164_19742)">
<path fill-rule="evenodd" clip-rule="evenodd" d="M8.05957 19C8.05957 18.4477 8.50729 18 9.05957 18H21.0596C21.6119 18 22.0596 18.4477 22.0596 19C22.0596 19.5523 21.6119 20 21.0596 20H9.05957C8.50729 20 8.05957 19.5523 8.05957 19Z" fill="#004C2A"/>
<path d="M6.05957 19C6.05957 20.1046 5.16414 21 4.05957 21C2.955 21 2.05957 20.1046 2.05957 19C2.05957 17.8954 2.955 17 4.05957 17C5.16414 17 6.05957 17.8954 6.05957 19Z" fill="#004C2A"/>
<path fill-rule="evenodd" clip-rule="evenodd" d="M8.05957 12C8.05957 11.4477 8.50729 11 9.05957 11H21.0596C21.6119 11 22.0596 11.4477 22.0596 12C22.0596 12.5523 21.6119 13 21.0596 13H9.05957C8.50729 13 8.05957 12.5523 8.05957 12Z" fill="#004C2A"/>
<path d="M6.05957 12C6.05957 13.1046 5.16414 14 4.05957 14C2.955 14 2.05957 13.1046 2.05957 12C2.05957 10.8954 2.955 10 4.05957 10C5.16414 10 6.05957 10.8954 6.05957 12Z" fill="#004C2A"/>
<path fill-rule="evenodd" clip-rule="evenodd" d="M8.05957 5C8.05957 4.44772 8.50729 4 9.05957 4H21.0596C21.6119 4 22.0596 4.44772 22.0596 5C22.0596 5.55228 21.6119 6 21.0596 6H9.05957C8.50729 6 8.05957 5.55228 8.05957 5Z" fill="#004C2A"/>
<path d="M6.05957 5C6.05957 6.10457 5.16414 7 4.05957 7C2.955 7 2.05957 6.10457 2.05957 5C2.05957 3.89543 2.955 3 4.05957 3C5.16414 3 6.05957 3.89543 6.05957 5Z" fill="#004C2A"/>
<mask id="mask0_164_19742" style="mask-type:luminance" maskUnits="userSpaceOnUse" x="2" y="3" width="21" height="18">
<path fill-rule="evenodd" clip-rule="evenodd" d="M8.05957 19C8.05957 18.4477 8.50729 18 9.05957 18H21.0596C21.6119 18 22.0596 18.4477 22.0596 19C22.0596 19.5523 21.6119 20 21.0596 20H9.05957C8.50729 20 8.05957 19.5523 8.05957 19Z" fill="white"/>
<path d="M6.05957 19C6.05957 20.1046 5.16414 21 4.05957 21C2.955 21 2.05957 20.1046 2.05957 19C2.05957 17.8954 2.955 17 4.05957 17C5.16414 17 6.05957 17.8954 6.05957 19Z" fill="white"/>
<path fill-rule="evenodd" clip-rule="evenodd" d="M8.05957 12C8.05957 11.4477 8.50729 11 9.05957 11H21.0596C21.6119 11 22.0596 11.4477 22.0596 12C22.0596 12.5523 21.6119 13 21.0596 13H9.05957C8.50729 13 8.05957 12.5523 8.05957 12Z" fill="white"/>
<path d="M6.05957 12C6.05957 13.1046 5.16414 14 4.05957 14C2.955 14 2.05957 13.1046 2.05957 12C2.05957 10.8954 2.955 10 4.05957 10C5.16414 10 6.05957 10.8954 6.05957 12Z" fill="white"/>
<path fill-rule="evenodd" clip-rule="evenodd" d="M8.05957 5C8.05957 4.44772 8.50729 4 9.05957 4H21.0596C21.6119 4 22.0596 4.44772 22.0596 5C22.0596 5.55228 21.6119 6 21.0596 6H9.05957C8.50729 6 8.05957 5.55228 8.05957 5Z" fill="white"/>
<path d="M6.05957 5C6.05957 6.10457 5.16414 7 4.05957 7C2.955 7 2.05957 6.10457 2.05957 5C2.05957 3.89543 2.955 3 4.05957 3C5.16414 3 6.05957 3.89543 6.05957 5Z" fill="white"/>
</mask>
<g mask="url(#mask0_164_19742)">
<path d="M9.05957 17C7.955 17 7.05957 17.8954 7.05957 19H9.05957V17ZM21.0596 17H9.05957V19H21.0596V17ZM23.0596 19C23.0596 17.8954 22.1642 17 21.0596 17V19H23.0596ZM21.0596 21C22.1642 21 23.0596 20.1046 23.0596 19H21.0596V21ZM9.05957 21H21.0596V19H9.05957V21ZM7.05957 19C7.05957 20.1046 7.955 21 9.05957 21V19H7.05957ZM5.05957 19C5.05957 19.5523 4.61185 20 4.05957 20V22C5.71642 22 7.05957 20.6569 7.05957 19H5.05957ZM4.05957 20C3.50729 20 3.05957 19.5523 3.05957 19H1.05957C1.05957 20.6569 2.40272 22 4.05957 22V20ZM3.05957 19C3.05957 18.4477 3.50729 18 4.05957 18V16C2.40272 16 1.05957 17.3431 1.05957 19H3.05957ZM4.05957 18C4.61185 18 5.05957 18.4477 5.05957 19H7.05957C7.05957 17.3431 5.71642 16 4.05957 16V18ZM9.05957 10C7.955 10 7.05957 10.8954 7.05957 12H9.05957V10ZM21.0596 10H9.05957V12H21.0596V10ZM23.0596 12C23.0596 10.8954 22.1642 10 21.0596 10V12H23.0596ZM21.0596 14C22.1642 14 23.0596 13.1046 23.0596 12H21.0596V14ZM9.05957 14H21.0596V12H9.05957V14ZM7.05957 12C7.05957 13.1046 7.955 14 9.05957 14V12H7.05957ZM5.05957 12C5.05957 12.5523 4.61185 13 4.05957 13V15C5.71642 15 7.05957 13.6569 7.05957 12H5.05957ZM4.05957 13C3.50729 13 3.05957 12.5523 3.05957 12H1.05957C1.05957 13.6569 2.40272 15 4.05957 15V13ZM3.05957 12C3.05957 11.4477 3.50729 11 4.05957 11V9C2.40272 9 1.05957 10.3431 1.05957 12H3.05957ZM4.05957 11C4.61185 11 5.05957 11.4477 5.05957 12H7.05957C7.05957 10.3431 5.71642 9 4.05957 9V11ZM9.05957 3C7.955 3 7.05957 3.89543 7.05957 5H9.05957V3ZM21.0596 3H9.05957V5H21.0596V3ZM23.0596 5C23.0596 3.89543 22.1642 3 21.0596 3V5H23.0596ZM21.0596 7C22.1642 7 23.0596 6.10457 23.0596 5H21.0596V7ZM9.05957 7H21.0596V5H9.05957V7ZM7.05957 5C7.05957 6.10457 7.955 7 9.05957 7V5H7.05957ZM5.05957 5C5.05957 5.55228 4.61185 6 4.05957 6V8C5.71642 8 7.05957 6.65685 7.05957 5H5.05957ZM4.05957 6C3.50729 6 3.05957 5.55228 3.05957 5H1.05957C1.05957 6.65685 2.40272 8 4.05957 8V6ZM3.05957 5C3.05957 4.44772 3.50729 4 4.05957 4V2C2.40272 2 1.05957 3.34315 1.05957 5H3.05957ZM4.05957 4C4.61185 4 5.05957 4.44772 5.05957 5H7.05957C7.05957 3.34315 5.71642 2 4.05957 2V4Z" fill="#004C2A"/>
</g>
</g>
<defs>
<clipPath id="clip0_164_19742">
<rect x="0.0595703" width="24" height="24" rx="4" fill="white"/>
</clipPath>
</defs>
</svg>
