<svg width="28" height="28" viewBox="0 0 28 28" fill="none" xmlns="http://www.w3.org/2000/svg">
<g clip-path="url(#clip0_164_11416)">
<path d="M25.6663 6.04301L12.3547 19.3663L7.40801 14.4197L9.05301 12.7747L12.3547 16.0763L24.0213 4.40967L25.6663 6.04301ZM23.088 11.923C23.2397 12.588 23.333 13.288 23.333 13.9997C23.333 19.1563 19.1563 23.333 13.9997 23.333C8.84301 23.333 4.66634 19.1563 4.66634 13.9997C4.66634 8.84301 8.84301 4.66634 13.9997 4.66634C15.843 4.66634 17.5463 5.20301 18.993 6.12467L20.673 4.44467C18.783 3.11467 16.4847 2.33301 13.9997 2.33301C7.55967 2.33301 2.33301 7.55967 2.33301 13.9997C2.33301 20.4397 7.55967 25.6663 13.9997 25.6663C20.4397 25.6663 25.6663 20.4397 25.6663 13.9997C25.6663 12.6113 25.4097 11.2813 24.9663 10.0447L23.088 11.923Z" fill="#15B67C"/>
</g>
<defs>
<clipPath id="clip0_164_11416">
<rect width="28" height="28" fill="white"/>
</clipPath>
</defs>
</svg>
