<svg width="25" height="33" viewBox="0 0 25 33" fill="none" xmlns="http://www.w3.org/2000/svg">
<path d="M9.75726 19.3817C14.6952 19.3817 18.6981 15.3787 18.6981 10.4409C18.6981 5.50296 14.6952 1.5 9.75726 1.5C4.81936 1.5 0.816406 5.50296 0.816406 10.4409C0.816406 15.3787 4.81936 19.3817 9.75726 19.3817Z" stroke="#007737" stroke-width="1.5" stroke-linecap="round" stroke-linejoin="round"/>
<path d="M16.2897 21.1598L16.2849 21.1628C15.1271 21.8684 14.6856 23.2562 15.2989 24.2625L19.2087 30.6778C19.822 31.6841 21.2577 31.9278 22.4155 31.2222L22.4204 31.2193C23.5782 30.5136 24.0196 29.1259 23.4063 28.1196L19.4966 21.7043C18.8833 20.698 17.4475 20.4542 16.2897 21.1598Z" stroke="#007737" stroke-width="1.5" stroke-linecap="round" stroke-linejoin="round"/>
<path d="M16.4102 21L14.4102 18.0742" stroke="#007737" stroke-width="1.5" stroke-linecap="round" stroke-linejoin="round"/>
<path d="M12.7031 9.66406C12.7031 9.66406 14.1419 10.7945 12.7031 12.2333" stroke="#007737" stroke-width="1.5" stroke-linecap="round" stroke-linejoin="round"/>
<path d="M7.18848 13.1468C7.18848 13.1468 8.31893 11.708 9.75769 13.1468" stroke="#007737" stroke-width="1.5" stroke-linecap="round" stroke-linejoin="round"/>
<path d="M8.9519 9.66991C9.65506 9.66991 10.2251 9.09988 10.2251 8.39672C10.2251 7.69356 9.65506 7.12354 8.9519 7.12354C8.24874 7.12354 7.67871 7.69356 7.67871 8.39672C7.67871 9.09988 8.24874 9.66991 8.9519 9.66991Z" stroke="#007737" stroke-width="1.5" stroke-linecap="round" stroke-linejoin="round"/>
</svg>
