<svg width="25" height="34" viewBox="0 0 25 34" fill="none" xmlns="http://www.w3.org/2000/svg">
<path d="M17.8319 9.2457C18.0177 9.54207 18.1009 9.89384 18.0843 10.2428C17.9013 14.2231 15.4999 17.3724 12.5633 17.3724C9.62673 17.3724 7.31685 14.3395 7.05342 10.4617C7.02292 10.0019 7.18652 9.54207 7.50541 9.20692C9.45203 7.15169 10.3255 8.24855 12.2527 5.56457C12.3997 5.36237 12.6992 5.37068 12.835 5.58119C14.5349 8.2347 16.6312 7.30957 17.8319 9.24016V9.2457Z" stroke="#007737" stroke-width="1.5" stroke-linecap="round" stroke-linejoin="round"/>
<path d="M5.88381 9.74984C5.82835 9.36207 5.79785 8.96598 5.79785 8.55881C5.79785 4.44281 8.82593 1.10791 12.5611 1.10791C16.2963 1.10791 19.3244 4.44281 19.3244 8.55881C19.3244 8.96321 19.2939 9.36207 19.2384 9.74984" stroke="#007737" stroke-width="1.5" stroke-linecap="round" stroke-linejoin="round"/>
<path d="M18.0564 9.83544C18.3531 9.63047 18.6886 9.55292 18.9992 9.64986C19.6536 9.85483 19.9559 10.7495 19.6758 11.6497C19.3957 12.5499 18.6359 13.1149 17.9815 12.91C17.8595 12.8712 17.7514 12.8103 17.6543 12.7299" stroke="#007737" stroke-width="1.5" stroke-linecap="round" stroke-linejoin="round"/>
<path d="M7.10084 9.83544C6.80414 9.63047 6.46861 9.55292 6.15803 9.64986C5.50362 9.85483 5.20136 10.7495 5.48143 11.6497C5.7615 12.5499 6.52129 13.1149 7.17571 12.91C7.29772 12.8712 7.40587 12.8103 7.50292 12.7299" stroke="#007737" stroke-width="1.5" stroke-linecap="round" stroke-linejoin="round"/>
<path d="M10.2061 16.6494V18.9733C10.2061 19.3057 9.96759 19.591 9.64038 19.6519L4.04454 20.6712C4.04454 20.6712 1.62929 21.1864 1.413 23.9507C1.31872 26.7677 1.413 32.8918 1.413 32.8918" stroke="#007737" stroke-width="1.5" stroke-linecap="round" stroke-linejoin="round"/>
<path d="M14.9043 16.6494V18.9733C14.9043 19.3057 15.1428 19.591 15.47 19.6519L21.0658 20.6712C21.0658 20.6712 23.4811 21.1864 23.6974 23.9507C23.7916 26.7677 23.6974 32.8918 23.6974 32.8918" stroke="#007737" stroke-width="1.5" stroke-linecap="round" stroke-linejoin="round"/>
<path d="M6.14653 12.6914C5.42555 14.3616 5.07339 16.0429 5.33959 17.7464C5.51152 18.8599 6.05224 19.6216 6.82313 20.1672C8.30112 23.8151 10.245 26.4659 12.5659 28.3134C14.9618 26.3163 17.0055 23.8013 18.2949 20.1672C19.0658 19.6216 19.6065 18.8599 19.7784 17.7464C20.0446 16.0429 19.6925 14.3616 18.9715 12.6914" stroke="#007737" stroke-width="1.5" stroke-linecap="round" stroke-linejoin="round"/>
<path d="M8.60938 23.7456H16.59" stroke="none" stroke-width="1.5" stroke-linecap="round" stroke-linejoin="round"/>
<path d="M10.9053 13.7495C11.9479 14.6082 13.0515 14.6608 14.2273 13.7495" stroke="none" stroke-width="1.5" stroke-linecap="round" stroke-linejoin="round"/>
</svg>
