<svg width="20" height="32" viewBox="0 0 20 32" fill="none" xmlns="http://www.w3.org/2000/svg">
<path d="M2.82113 8.52979H17.624C18.297 8.52979 18.8426 9.07537 18.8426 9.74838V30.0314C18.8426 30.7044 18.297 31.25 17.624 31.25H2.82113C2.14812 31.25 1.60254 30.7044 1.60254 30.0314V9.74838C1.60254 9.07537 2.14812 8.52979 2.82113 8.52979Z" stroke="#007737" stroke-width="1.5" stroke-miterlimit="10"/>
<path d="M5.13266 0.75H15.3067C15.9797 0.75 16.5253 1.29558 16.5253 1.96859V3.86033C16.5253 4.53334 15.9797 5.07893 15.3067 5.07893H5.13266C4.45964 5.07893 3.91406 4.53334 3.91406 3.86033V1.96859C3.91406 1.29558 4.45965 0.75 5.13266 0.75Z" stroke="#007737" stroke-width="1.5" stroke-miterlimit="10"/>
<path d="M1.85254 28L18.8525 28" stroke="#007737" stroke-width="1.5" stroke-linecap="round" stroke-linejoin="round"/>
<path d="M1.85254 12H18.8525" stroke="#007737" stroke-width="1.5" stroke-linecap="round" stroke-linejoin="round"/>
<path d="M15.3125 5.8291V7.77996" stroke="#007737" stroke-width="1.5" stroke-miterlimit="10"/>
<path d="M5.13281 5.8291V7.77996" stroke="#007737" stroke-width="1.5" stroke-miterlimit="10"/>
</svg>
