<svg width="29" height="28" viewBox="0 0 29 28" fill="none" xmlns="http://www.w3.org/2000/svg">
<path d="M15.0049 23.5C19.147 23.5 22.5049 20.1421 22.5049 16C22.5049 11.8579 19.147 8.5 15.0049 8.5C10.8627 8.5 7.50488 11.8579 7.50488 16C7.50488 20.1421 10.8627 23.5 15.0049 23.5Z" stroke="#ffffff" stroke-width="1.5" stroke-linecap="round" stroke-linejoin="round"/>
<path d="M19.5049 14.5142V17.4858H16.4907V20.5H13.5191V17.4858H10.5049V14.5142H13.5191V11.5H16.4907V14.5142H19.5049Z" stroke="#ffffff" stroke-width="1.5" stroke-linecap="round" stroke-linejoin="round"/>
<path d="M25.7659 6.07715H3.12267C1.86136 6.07715 0.838867 7.09964 0.838867 8.36095V24.2161C0.838867 25.4774 1.86136 26.4999 3.12267 26.4999H25.7659C27.0272 26.4999 28.0497 25.4774 28.0497 24.2161V8.36095C28.0497 7.09964 27.0272 6.07715 25.7659 6.07715Z" stroke="#ffffff" stroke-width="1.5" stroke-miterlimit="10"/>
<path d="M8.95175 1.5H20.7457C22.0069 1.5 23.0295 2.5226 23.0295 3.7838V6.07247H6.66309V3.7838C6.66309 2.5226 7.68568 1.5 8.94688 1.5H8.95175Z" stroke="#ffffff" stroke-width="1.5" stroke-miterlimit="10"/>
</svg>
