<svg width="30" height="36" viewBox="0 0 30 36" fill="none" xmlns="http://www.w3.org/2000/svg">
<path d="M24.5889 3.43356L24.3554 3.28074C21.9111 1.68107 18.6329 2.36573 17.0332 4.80997L3.65972 25.2442C2.06004 27.6884 2.7447 30.9667 5.18895 32.5664L5.42245 32.7192C7.8667 34.3189 11.1449 33.6342 12.7446 31.19L26.1181 10.7557C27.7178 8.31148 27.0331 5.03324 24.5889 3.43356Z" stroke="#ffffff" stroke-width="1.5" stroke-miterlimit="10"/>
<path d="M18.7336 8.32768C19.2465 8.66332 19.9343 8.51967 20.2699 8.00682C20.6056 7.49398 20.4619 6.80616 19.9491 6.47052C19.4362 6.13488 18.7484 6.27853 18.4128 6.79137C18.0771 7.30422 18.2208 7.99204 18.7336 8.32768Z" fill="#007737"/>
<path d="M16.4524 11.814C16.9652 12.1496 17.6531 12.006 17.9887 11.4932C18.3243 10.9803 18.1807 10.2925 17.6678 9.95685C17.155 9.62121 16.4672 9.76486 16.1315 10.2777C15.7959 10.7905 15.9395 11.4784 16.4524 11.814Z" fill="#007737"/>
<path d="M22.218 10.608C22.7309 10.9436 23.4187 10.7999 23.7543 10.2871C24.09 9.77426 23.9463 9.08643 23.4335 8.75079C22.9206 8.41515 22.2328 8.55881 21.8972 9.07165C21.5615 9.58449 21.7052 10.2723 22.218 10.608Z" fill="#007737"/>
<path d="M19.9368 14.0943C20.4496 14.4299 21.1374 14.2863 21.4731 13.7734C21.8087 13.2606 21.6651 12.5728 21.1522 12.2371C20.6394 11.9015 19.9515 12.0451 19.6159 12.558C19.2803 13.0708 19.4239 13.7586 19.9368 14.0943Z" fill="#007737"/>
<path d="M8.63012 23.7657C9.14297 24.1013 9.83079 23.9577 10.1664 23.4448C10.5021 22.932 10.3584 22.2441 9.84557 21.9085C9.33273 21.5729 8.6449 21.7165 8.30927 22.2294C7.97363 22.7422 8.11728 23.43 8.63012 23.7657Z" fill="#007737"/>
<path d="M6.3479 27.2525C6.86074 27.5881 7.54857 27.4445 7.8842 26.9316C8.21984 26.4188 8.07619 25.731 7.56335 25.3953C7.05051 25.0597 6.36268 25.2033 6.02704 25.7162C5.6914 26.229 5.83506 26.9168 6.3479 27.2525Z" fill="#007737"/>
<path d="M12.1145 26.0459C12.6273 26.3816 13.3152 26.2379 13.6508 25.7251C13.9864 25.2122 13.8428 24.5244 13.3299 24.1888C12.8171 23.8531 12.1293 23.9968 11.7936 24.5096C11.458 25.0225 11.6017 25.7103 12.1145 26.0459Z" fill="#007737"/>
<path d="M9.83227 29.5328C10.3451 29.8684 11.0329 29.7247 11.3686 29.2119C11.7042 28.6991 11.5606 28.0112 11.0477 27.6756C10.5349 27.34 9.84705 27.4836 9.51142 27.9965C9.17578 28.5093 9.31943 29.1971 9.83227 29.5328Z" fill="#007737"/>
<path d="M12.8761 15.2515L11.5647 17.2553C10.9621 18.176 11.22 19.4108 12.1407 20.0134L14.1445 21.3248C15.0652 21.9274 16.3001 21.6695 16.9027 20.7488L18.2141 18.745C18.8167 17.8243 18.5588 16.5894 17.638 15.9868L15.6343 14.6754C14.7136 14.0729 13.4787 14.3308 12.8761 15.2515Z" stroke="#ffffff" stroke-width="1.5" stroke-miterlimit="10"/>
</svg>
