<svg width="14" height="15" viewBox="0 0 14 15" fill="none" xmlns="http://www.w3.org/2000/svg">
<path d="M6.04894 1.42705C6.3483 0.505738 7.6517 0.50574 7.95106 1.42705L8.90837 4.37336C9.04224 4.78538 9.4262 5.06434 9.85943 5.06434H12.9574C13.9261 5.06434 14.3289 6.30395 13.5451 6.87336L11.0389 8.69427C10.6884 8.94892 10.5417 9.40028 10.6756 9.81231L11.6329 12.7586C11.9323 13.6799 10.8778 14.446 10.0941 13.8766L7.58778 12.0557C7.2373 11.8011 6.7627 11.8011 6.41221 12.0557L3.90594 13.8766C3.12222 14.446 2.06774 13.6799 2.3671 12.7586L3.32441 9.8123C3.45828 9.40028 3.31162 8.94892 2.96114 8.69427L0.454859 6.87335C-0.328855 6.30395 0.0739233 5.06434 1.04265 5.06434H4.14057C4.5738 5.06434 4.95776 4.78538 5.09163 4.37336L6.04894 1.42705Z" fill="#F2994A"/>
</svg>
